<svg version="1.1" xmlns="http://www.w3.org/2000/svg" viewBox="0 0 250 250"><desc>Created with Snap</desc><defs></defs><g transform="matrix(0.0383,0,0,0.0383,56.8467,60.2371)"><rect x="-470.0442384663542" y="-1571.7" width="4496.588476932708" height="6522.974999999999" style="" fill="#9d4edd"></rect><g transform="matrix(43.1354,0,0,43.1354,-378.5213,550.5229)"><g><path d="M78.4,66.5c-5.5,4.8-9.9,15.2-9.9,15.2s-6.9-11.4-12.9-15.3c-9.5-6.1-13.6-6.2-13.6-6.2V65c0,0,7.8,1.2,11.7,4.6   c8.2,7.1,14.8,18.5,14.8,18.5S74.4,75,80.1,70.5C88.1,64.3,95,65,95,65v-4.8C95,60.1,85.1,60.7,78.4,66.5z" style="" fill="#ffffff"></path><path d="M42,80c-6.4-3.6-17.8-4.3-17.8-4.3s8.7-10.1,10.5-17C37.5,47.9,36.2,44,36.2,44l-4.6,1.6c0,0,1.3,7.7-0.6,12.4   c-4.1,9.9-13,19.8-13,19.8s14.6,1.3,20.7,5.1c8.6,5.4,10.2,12,10.2,12l4.6-1.6C53.5,93.4,49.7,84.4,42,80z" style="" fill="#ffffff"></path><path d="M35.3,36.8c11.3-0.9,14.6-3.4,14.6-3.4l-3-3.8c0,0-6.9,3.7-12.1,3.4c-10.9-0.6-23.3-5.6-23.3-5.6s3.5,14,1.8,20.9   C10.9,58.2,5,61.8,5,61.8l3,3.8c0,0,7.5-6.5,9.1-15.1c1.3-7.1-1.7-18-1.7-18S28,37.4,35.3,36.8z" style="" fill="#ffffff"></path><path d="M37.4,17.8c7.3-1.1,16.7-7.4,16.7-7.4s-0.6,13.2,2.4,19.8c4.6,10.2,8,12.5,8,12.5l2.7-4c0,0-5.9-5.2-7.3-10.2   C56.9,18.2,57.7,5,57.7,5s-12.3,7.8-19.5,8.5c-10.2,1-15.6-3.3-15.6-3.3l-2.7,4.1C19.9,14.2,28.6,19.1,37.4,17.8z" style="" fill="#ffffff"></path><path d="M65,60.5c0,0,3.1-7.2,7.4-10.1c9-6.1,21.9-9.7,21.9-9.7s-11.5-8.9-14.5-15.4c-4.2-9.1-1.9-15.6-1.9-15.6l-4.8-1.2   c0,0-1.9,9.6,2.2,17.4c3.4,6.4,12.5,13.2,12.5,13.2S75,42.9,69.6,47.8c-8.3,7.6-9.4,11.5-9.4,11.5L65,60.5z" style="" fill="#ffffff"></path></g><desc>Created with Snap</desc><defs></defs></g><g><g transform="matrix(0.5,0,0,-0.5,0,0)"><path d="M928 1440Q932 1320 932 1276L932 1098Q932 604 986 336Q1011 215 1053 119Q1363 680 1468 1050Q1546 1323 1546 1580Q1546 1837 1406 2110Q1305 2305 1145 2390Q1062 2433 961 2433Q931 2433 909 2420Q888 2408 877 2402L846 2308Q826 2267 788 2267Q758 2267 754 2308Q760 2327 764 2347Q768 2368 774 2388Q812 2529 990 2529Q1169 2529 1321 2383Q1473 2238 1559 2022Q1645 1806 1645 1638Q1645 902 1145 88Q1079 -20 1033 -20Q987 -20 928 188Q838 522 838 1114Q683 573 504 213Q472 150 442 90Q381 -31 315 -31Q297 -31 284 -14Q272 4 272 35Q272 323 245 569Q219 815 200 959Q182 1103 155 1345Q129 1588 129 1864Q129 1927 154 1945Q180 1964 197 1964Q227 1964 227 1927L217 1800Q217 1736 225 1639Q234 1543 240 1400Q247 1258 303 819Q359 381 371 143Q416 240 454 322Q493 405 528 487Q665 809 834 1442Q831 1544 831 1680Q831 1816 850 1884Q870 1952 918 1952Q975 1952 975 1767Q975 1644 928 1440ZM1942 1376Q2001 1376 2001 1317Q2001 1231 1941 1220Q1924 1217 1904 1217Q1884 1217 1864 1237Q1844 1257 1844 1288Q1844 1320 1875 1348Q1906 1376 1942 1376ZM1801 909L1801 929Q1801 943 1786 997Q1786 1022 1803 1042Q1820 1063 1844 1063Q1869 1063 1885 1032Q1901 1001 1901 964Q1901 927 1807 522Q1713 117 1713 95Q1713 74 1733 74Q1746 74 1770 99Q1794 125 1811 125Q1844 125 1844 83Q1844 42 1782 11Q1720 -20 1692 -20Q1622 -20 1622 92Q1622 115 1631 143Q1641 172 1651 222Q1662 273 1681 360Q1701 447 1721 540Q1742 633 1771 765Q1801 898 1801 909ZM2269 942Q2184 942 2122 932Q2081 936 2081 967Q2081 985 2096 1004Q2111 1023 2136 1026L2284 1022Q2288 1043 2292 1072Q2297 1102 2308 1158Q2320 1215 2340 1261Q2361 1307 2394 1307Q2427 1307 2427 1270L2427 1257Q2398 1133 2378 1024L2525 1024Q2603 1024 2620 1012Q2638 1000 2638 982Q2638 947 2595 936Q2573 930 2506 930Q2440 930 2362 936Q2343 836 2277 562Q2212 288 2212 208Q2212 129 2230 104Q2243 88 2274 88Q2305 88 2327 106Q2349 124 2367 145Q2385 167 2402 185Q2420 203 2441 203Q2482 203 2482 162Q2482 141 2440 92Q2399 44 2364 18Q2329 -8 2262 -8Q2195 -8 2170 15Q2118 61 2118 162Q2118 214 2130 285L2149 401Q2168 487 2183 551Q2198 616 2209 665Q2220 714 2238 792Q2256 871 2269 942ZM3625 117Q3445 -31 3154 -31Q3002 -31 2890 67Q2744 194 2704 435Q2693 505 2693 571Q2693 804 2815 1166Q2899 1415 3029 1621Q3159 1828 3326 1915Q3413 1960 3504 1960Q3677 1960 3779 1856Q3881 1752 3912 1577Q3909 1555 3890 1537Q3872 1520 3850 1520Q3829 1520 3818 1548Q3794 1615 3770 1672Q3692 1864 3504 1864Q3353 1864 3210 1720Q3026 1532 2906 1182Q2787 832 2787 615Q2787 398 2858 253Q2952 61 3168 61Q3523 61 3651 258Q3697 329 3711 418Q3708 429 3707 440Q3707 451 3683 481Q3659 511 3584 584Q3510 658 3447 702Q3315 675 3148 653Q3107 657 3107 690Q3107 716 3131 737Q3267 834 3363 834Q3421 834 3478 803Q3724 857 4035 956Q4084 956 4084 922Q4084 912 4076 891Q3814 462 3678 -49Q3610 -306 3569 -524Q3529 -741 3504 -860Q3501 -885 3482 -902Q3463 -918 3447 -918Q3414 -918 3410 -874Q3478 -442 3525 -253Q3573 -63 3625 117ZM3576 729Q3668 641 3682 626Q3697 611 3724 586Q3751 561 3772 532Q3810 611 3853 685Q3897 759 3940 834Q3759 772 3576 729ZM4168 0Q4051 0 4051 147Q4051 294 4160 507Q4270 721 4418 876Q4566 1032 4659 1032Q4753 1032 4766 950Q4770 925 4772 897Q4781 903 4794 903Q4841 903 4841 858L4841 850Q4841 847 4816 760Q4791 673 4759 470Q4727 267 4727 123Q4736 117 4748 109Q4760 102 4778 86Q4796 71 4796 50Q4796 29 4783 12Q4770 -4 4746 -4Q4697 -4 4657 46Q4618 96 4618 154Q4618 279 4686 584Q4601 406 4466 241Q4331 76 4279 38Q4228 0 4168 0ZM4153 143Q4153 106 4184 106Q4206 106 4221 121Q4428 299 4592 614Q4685 794 4690 821Q4696 848 4696 867Q4696 886 4686 903Q4676 920 4658 920Q4640 920 4605 901Q4528 859 4415 722Q4303 585 4228 424Q4153 263 4153 143ZM5020 0Q5036 48 5048 117Q5061 187 5081 246Q5166 585 5221 965Q5224 983 5225 999Q5227 1015 5255 1047Q5276 1055 5286 1055Q5314 1055 5323 1020L5323 1004Q5319 858 5278 686L5227 471Q5249 517 5275 577Q5385 831 5480 936Q5575 1042 5686 1042Q5747 1042 5786 992Q5825 943 5825 877Q5825 867 5824 859Q5823 852 5823 844Q5934 979 6054 1028Q6091 1044 6128 1044Q6166 1044 6200 1008Q6234 973 6234 913Q6234 853 6221 784Q6208 715 6188 645Q6169 575 6144 503Q6120 432 6081 305Q6042 178 6035 110Q6028 43 6023 30Q6019 17 6005 -1Q5992 -18 5968 -18Q5921 -18 5921 82Q5921 145 5944 218Q5967 291 5981 341Q5996 391 6021 461Q6046 531 6083 645Q6120 759 6132 889Q6132 931 6121 938Q6111 946 6084 946Q6057 946 6002 911Q5948 876 5892 812Q5767 665 5704 451Q5686 387 5670 341Q5654 295 5627 215Q5601 135 5585 74Q5570 14 5558 -2Q5547 -18 5521 -18Q5474 -18 5470 33Q5494 201 5542 330Q5590 459 5620 535Q5650 611 5678 706Q5706 802 5706 871Q5706 940 5663 940Q5545 940 5353 552Q5250 345 5228 279Q5206 213 5194 178Q5128 -29 5069 -29Q5049 -29 5034 -21Q5020 -12 5020 0ZM6865 168Q6900 168 6900 131Q6900 88 6795 34Q6690 -20 6620 -20Q6550 -20 6515 3Q6480 26 6458 67Q6415 147 6415 260Q6415 460 6475 637Q6535 814 6635 930Q6735 1047 6851 1047Q6913 1047 6948 995Q6984 944 6984 874Q6984 743 6915 652Q6847 561 6747 503Q6647 445 6517 393L6513 246Q6513 74 6617 74Q6673 74 6734 106Q6796 139 6823 153Q6850 168 6865 168ZM6890 870Q6890 950 6823 950Q6763 950 6682 842Q6601 734 6548 557Q6535 514 6533 492Q6573 514 6615 534Q6657 554 6697 576Q6789 627 6839 695Q6890 764 6890 870Z" style="" fill="#ffffff"></path></g></g></g></svg>